<?xml version="1.0" encoding="UTF-8"?>
<svg width="54px" height="36px" viewBox="0 0 54 36" version="1.1" xmlns="http://www.w3.org/2000/svg" xmlns:xlink="http://www.w3.org/1999/xlink">
    <!-- Generator: sketchtool 49.3 (51167) - http://www.bohemiancoding.com/sketch -->
    <title>353CA8F7-92CE-45EE-95C7-63CC62E8B929</title>
    <desc>Created with sketchtool.</desc>
    <defs></defs>
    <g id="Hackaton" stroke="none" stroke-width="1" fill="none" fill-rule="evenodd">
        <g id="Hackaton-10-detail-photo-share" transform="translate(-273.000000, -385.000000)">
            <g id="Group-8" transform="translate(33.000000, 385.000000)">
                <g id="Group-2" transform="translate(240.000000, 0.000000)">
                    <rect id="Rectangle" fill="#4A90E2" x="0" y="0" width="54" height="36" rx="4"></rect>
                    <g id="photo-camera" transform="translate(13.000000, 6.000000)" fill="#FFFFFF" fill-rule="nonzero">
                        <path d="M25.39246,4.83 L21.47142,4.83 L19.63142,0.23 L7.96858,0.23 L6.12858,4.83 L5.52,4.83 L5.52,2.53 L2.76,2.53 L2.76,4.83 L2.20754,4.83 C0.98992,4.83 0,5.81992 0,7.03754 L0,20.54682 C0,21.77272 0.99728,22.77 2.22318,22.77 L25.37682,22.77 C26.60272,22.77 27.6,21.77272 27.6,20.54682 L27.6,7.03754 C27.6,5.81992 26.61008,4.83 25.39246,4.83 Z M3.68,3.45 L4.6,3.45 L4.6,4.83 L3.68,4.83 L3.68,3.45 Z M26.68,20.54682 C26.68,21.2658 26.09534,21.85 25.37682,21.85 L2.22318,21.85 C1.50466,21.85 0.92,21.26534 0.92,20.54682 L0.92,7.03754 C0.92,6.32776 1.49776,5.75 2.20754,5.75 L2.76,5.75 L5.52,5.75 L6.75142,5.75 L8.59142,1.15 L19.00858,1.15 L20.84858,5.75 L25.39246,5.75 C26.10224,5.75 26.68,6.32776 26.68,7.03754 L26.68,20.54682 Z" id="Shape"></path>
                        <path d="M13.8,4.37 C9.2345,4.37 5.52,8.0845 5.52,12.65 C5.52,17.2155 9.2345,20.93 13.8,20.93 C18.3655,20.93 22.08,17.2155 22.08,12.65 C22.08,8.0845 18.3655,4.37 13.8,4.37 Z M13.8,20.01 C9.74188,20.01 6.44,16.70812 6.44,12.65 C6.44,8.59188 9.74188,5.29 13.8,5.29 C17.85812,5.29 21.16,8.59188 21.16,12.65 C21.16,16.70812 17.85812,20.01 13.8,20.01 Z" id="Shape"></path>
                        <path d="M18.6296296,12.4444444 L14.3703704,12.4444444 L14.3703704,8.37037037 C14.3703704,8.16555556 14.2044444,8 14,8 C13.7955556,8 13.6296296,8.16555556 13.6296296,8.37037037 L13.6296296,12.4444444 L9.37037037,12.4444444 C9.16592593,12.4444444 9,12.61 9,12.8148148 C9,13.0196296 9.16592593,13.1851852 9.37037037,13.1851852 L13.6296296,13.1851852 L13.6296296,17.6296296 C13.6296296,17.8344444 13.7955556,18 14,18 C14.2044444,18 14.3703704,17.8344444 14.3703704,17.6296296 L14.3703704,13.1851852 L18.6296296,13.1851852 C18.8340741,13.1851852 19,13.0196296 19,12.8148148 C19,12.61 18.8340741,12.4444444 18.6296296,12.4444444 Z" id="Shape"></path>
                        <path d="M23.92,6.67 C22.90524,6.67 22.08,7.49524 22.08,8.51 C22.08,9.52476 22.90524,10.35 23.92,10.35 C24.93476,10.35 25.76,9.52476 25.76,8.51 C25.76,7.49524 24.93476,6.67 23.92,6.67 Z M23.92,9.43 C23.41262,9.43 23,9.01738 23,8.51 C23,8.00262 23.41262,7.59 23.92,7.59 C24.42738,7.59 24.84,8.00262 24.84,8.51 C24.84,9.01738 24.42738,9.43 23.92,9.43 Z" id="Shape"></path>
                    </g>
                </g>
            </g>
        </g>
    </g>
</svg>